<svg width="10" height="14.699999999999998" xmlns="http://www.w3.org/2000/svg" preserveAspectRatio="xMidYMid meet" version="1.0">
 <g>
  <title>background</title>
  <rect fill="none" id="canvas_background" height="16.7" width="12" y="-1" x="-1"/>
 </g>

 <g>
  <title>Layer 1</title>
  <g stroke="null" id="svg_1" fill="#000000" transform="translate(0,200) scale(0.10000000149011612,-0.10000000149011612) ">
   <path stroke="null" id="svg_2" d="m48.590535,1974.774611c-3.287142,-1.460959 -6.817793,-5.174226 -14.183458,-14.913946c-4.139376,-5.539458 -9.861458,-12.235513 -13.818219,-16.192273c-5.843829,-5.722082 -7.000426,-7.243919 -8.157014,-10.348445c-1.643575,-4.443747 -1.339213,-7.670028 0.973973,-11.383295c2.191439,-3.591521 15.279178,-16.253151 17.835857,-17.34887c1.095719,-0.486986 3.895883,-1.03485 6.087322,-1.217466c3.408897,-0.304362 4.504616,-0.121747 6.635177,0.973973c4.930733,2.495801 5.295973,6.391684 1.278335,12.479006c-1.88706,2.861049 -3.348027,4.017638 -9.130979,7.243919c-3.043657,1.765322 -4.382878,4.078507 -3.530652,6.330815c0.243493,0.669602 3.043665,3.348027 6.209077,5.843829c9.557087,7.60915 16.009658,15.705287 19.296807,24.288418c2.069692,5.356842 2.252308,8.400499 0.73048,11.444164c-1.704452,3.469774 -5.965575,4.626363 -10.226698,2.800172l-0.000008,0z"/>
   <path stroke="null" id="svg_3" d="m48.164426,1940.929097c-1.704444,-1.095719 -2.374055,-3.530652 -1.643575,-5.843829c0.852226,-2.617548 3.95676,-5.235104 10.957178,-9.37448c4.322,-2.556679 5.478597,-3.530643 5.478597,-4.626363c0,-1.947946 -8.522254,-11.139802 -26.35811,-28.549549c-22.76659,-22.218726 -30.984473,-33.115026 -27.392952,-36.402184c2.374055,-2.130561 12.479014,-2.982788 16.314028,-1.400082c1.460951,0.608725 2.800164,2.008815 4.322,4.443747c1.217458,1.947937 4.078499,5.600335 6.269938,8.096137c4.808987,5.41772 15.400924,16.67926 16.009658,16.922753c0.243493,0.121747 0.852226,-0.608733 1.339213,-1.643575c0.547856,-1.034842 3.713267,-5.05248 7.122164,-9.00924c3.348027,-3.956752 7.18305,-8.948363 8.461385,-11.139793c3.95676,-6.696055 5.78296,-7.852643 13.39211,-8.339638c6.269938,-0.426109 8.948363,0.36524 9.496218,2.678425c0.547864,2.130561 -0.791349,4.565493 -5.295965,9.983205c-2.13057,2.49581 -5.539466,7.243919 -7.548281,10.531069c-2.008815,3.226289 -4.382869,6.817801 -5.356842,7.974398c-2.191439,2.678417 -7.183041,5.052472 -11.687657,5.661205l-3.652398,0.426117l13.39211,13.69648c7.426534,7.548273 13.818219,14.609567 14.244336,15.644409c0.486986,1.156597 0.669602,2.861049 0.426109,4.017638c-0.547856,3.043665 -6.939548,11.383295 -10.409322,13.696472c-3.165403,2.069692 -3.408897,2.130561 -9.435341,2.252308c-2.191439,0 -6.939556,0.243493 -10.652824,0.486995c-4.626363,0.304362 -7.061286,0.243485 -7.791774,-0.182624z"/>
  </g>
 </g>
</svg>