<svg width="15" height="15" xmlns="http://www.w3.org/2000/svg" p-id="2036" version="1.1" class="icon" t="1646890740938">
 <defs>
  <style type="text/css"/>
 </defs>
 <g>
  <title>background</title>
  <rect fill="none" id="canvas_background" height="17" width="17" y="-1" x="-1"/>
 </g>
 <g>
  <title>Layer 1</title>
  <path stroke="null" id="svg_1" p-id="2037" d="m8.339148,4.834347l0,8.81892l0.923608,0l0.387915,1.099094l1.637865,-1.099094l2.024241,0l0,-8.81892l-4.97363,0zm3.812963,7.650555l-0.922069,0l-1.15605,0.775831l-0.274004,-0.775831l-0.277082,0l0,-6.446786l2.627665,0l0,6.446786l0.001539,0zm-4.405611,-3.697512l-2.045792,0c0.032326,-0.691167 0.066192,-1.605539 0.101597,-2.661531l2.015005,0l-0.001539,-0.124687c0,-0.009236 -0.003079,-0.226284 -0.035405,-0.44795c-0.032326,-0.230902 -0.101597,-0.537232 -0.323263,-0.537232l-3.380406,0c0.067731,-0.317106 0.241677,-1.072925 0.452568,-1.443908l0.098518,-0.172407l-0.198576,-0.010775c-0.012315,0 -0.301712,-0.013854 -0.63729,0.163171c-0.549547,0.292476 -0.795842,0.868192 -0.903597,1.299209c-0.28324,1.125263 -0.686549,1.907251 -0.857416,2.241289c-0.050798,0.098518 -0.081585,0.157013 -0.09544,0.197036c-0.027708,0.075428 -0.012315,0.150856 0.043102,0.200115c0.161631,0.146238 0.588031,-0.044641 0.592649,-0.04618c0.009236,-0.004618 0.020012,-0.009236 0.033866,-0.015393c0.213969,-0.096979 0.84818,-0.384837 1.074464,-1.300748l0.87281,0c0.010775,0.49567 0.04772,2.130456 0.044641,2.661531l-2.170479,0l-0.032326,0.02309c-0.355589,0.26015 -0.469501,0.972867 -0.474119,1.003654l-0.021551,0.14162l2.57071,0c-0.18934,1.205309 -0.407927,1.74562 -0.523378,1.961128c-0.056956,0.107754 -0.112372,0.215509 -0.16471,0.320184c-0.327881,0.649604 -0.668077,1.32076 -1.944195,2.364437c-0.055416,0.043102 -0.107754,0.123148 -0.073889,0.210891c0.036944,0.096979 0.143159,0.140081 0.378679,0.140081c0.083125,0 0.181643,-0.004618 0.298633,-0.015393c0.768134,-0.067731 1.551662,-0.277082 2.079658,-1.348468c0.261689,-0.540311 0.487973,-1.103712 0.675773,-1.676349l2.101209,2.462955l0.076967,-0.184722c0.012315,-0.029248 0.292476,-0.712718 0.078507,-1.476234l-0.007697,-0.027708l-1.664034,-1.893397l-0.338656,0.255532c0.098518,-0.40177 0.163171,-0.768134 0.192418,-1.094476l2.442944,0l0,-0.123148c0,-0.617278 -0.284779,-0.983643 -0.295555,-0.999036l-0.036944,-0.04618l0.001539,0z"/>
 </g>
</svg>